<?xml version="1.0" encoding="utf-8"?>
<!-- Generator: Adobe Illustrator 26.3.1, SVG Export Plug-In . SVG Version: 6.00 Build 0)  -->
<svg version="1.1" id="Layer_1" xmlns="http://www.w3.org/2000/svg" xmlns:xlink="http://www.w3.org/1999/xlink" x="0px" y="0px"
	 viewBox="0 0 540 180" style="enable-background:new 0 0 540 180;" xml:space="preserve">
<style type="text/css">
	.st0{fill:#009BCE;}
	.st1{fill:#58C4E4;}
</style>
<g>
	<path class="st0" d="M47.56,74.09c-3.66,0-7.33-1.24-10.15-2.96l1.9-4.94c2.56,1.72,5.65,2.78,8.43,2.78c3.66,0,5.34-1.81,5.34-3.8
		c0-2.07-1.15-3.31-6.75-5.38c-6.05-2.21-8.12-5.08-8.12-8.78c0-4.68,3.8-9,10.42-9c3.31,0,6.58,0.97,8.56,2.12l-1.77,4.85
		c-1.81-1.02-4.55-2.07-6.93-2.07c-3.27,0-4.77,1.81-4.77,3.97c0,1.99,1.68,3.22,6.05,4.81c6.93,2.69,8.92,5.43,8.92,9.49
		C58.69,70.69,54.49,74.09,47.56,74.09z"/>
	<path class="st0" d="M85.51,42c9.62,0,16.59,6.75,16.59,16.02c0,9.14-7.11,16.02-16.59,16.02S68.96,67.2,68.96,58.02
		C68.96,49.06,76.2,42,85.51,42z M85.56,69.23c6,0,10.68-4.81,10.68-11.12c0-6.36-4.46-11.17-10.68-11.17
		c-6.13,0-10.68,4.81-10.68,11.17C74.88,64.33,79.56,69.23,85.56,69.23z"/>
	<path class="st0" d="M114.37,42.53h5.47v18.18c0,5.91,2.69,8.39,7.37,8.39c4.68,0,7.55-2.47,7.55-8.43V42.53h5.47v18.18
		c0,9.27-5.25,13.42-13.02,13.42c-7.77,0-12.84-4.15-12.84-13.42V42.53z"/>
	<path class="st0" d="M150.55,42.53h26.08v5.03h-10.19v26h-5.52v-26h-10.37V42.53z"/>
	<path class="st0" d="M207.96,61.33h-15.14v12.23h-5.47V42.53h5.47v13.95h15.14v-13.9h5.47v30.98h-5.47V61.33z"/>
	<path class="st0" d="M228.08,42.53h20.17v5.03h-14.7v8.69h13.33v4.85h-13.33v7.41h14.7v5.03h-20.17V42.53z"/>
	<path class="st0" d="M261.66,42.53h9.93c8.25,0,12.4,4.55,12.4,11.03c0,4.28-1.77,7.68-5.65,9.49l7.94,10.5h-6.4l-6.58-9.14
		c-0.88,0.09-1.81,0.13-2.78,0.13h-3.4v9h-5.47V42.53z M267.13,47.56V59.7h4.06c5.12,0,6.88-2.74,6.88-6.13c0-3.4-1.72-6-6.88-6
		H267.13z"/>
	<path class="st0" d="M297.8,42.35h1.72l19.2,19.99V42.53h5.47v31.25h-1.46l-19.46-19.46v19.24h-5.47V42.35z"/>
	<path class="st0" d="M179.33,116.57h-1.9l-9.62-20.96l-9.49,20.96h-1.85l-9.75-31.42h6.05l5.87,19.77l8.34-20.08h1.81l8.43,20.04
		l5.83-19.73h5.96L179.33,116.57z"/>
	<path class="st0" d="M201.34,85.15h5.47v31.03h-5.47V85.15z"/>
	<path class="st0" d="M222.35,84.97h1.72l19.2,19.99V85.15h5.47v31.25h-1.46l-19.46-19.46v19.24h-5.47V84.97z"/>
	<path class="st0" d="M264.27,85.15h11.7c9.62,0,16.59,6.49,16.59,15.49c0,8.87-7.11,15.54-16.59,15.54h-11.7V85.15z M269.78,90.18
		v20.96h6.22c6,0,10.68-4.37,10.68-10.42c0-6.09-4.46-10.55-10.68-10.55H269.78z"/>
	<path class="st0" d="M313.65,116.71c-3.66,0-7.33-1.24-10.15-2.96l1.9-4.94c2.56,1.72,5.65,2.78,8.43,2.78
		c3.66,0,5.34-1.81,5.34-3.8c0-2.07-1.15-3.31-6.75-5.38c-6.05-2.21-8.12-5.08-8.12-8.78c0-4.68,3.8-9,10.42-9
		c3.31,0,6.58,0.97,8.56,2.12l-1.77,4.85c-1.81-1.02-4.55-2.07-6.93-2.07c-3.27,0-4.77,1.81-4.77,3.97c0,1.99,1.68,3.22,6.05,4.81
		c6.93,2.69,8.92,5.43,8.92,9.49C324.77,113.31,320.57,116.71,313.65,116.71z"/>
</g>
<g>
	<path class="st1" d="M172.07,143.76h-7.26v5.87h-2.63v-14.89h2.63v6.69h7.26v-6.67h2.63v14.86h-2.63V143.76z"/>
	<path class="st1" d="M194.18,134.49c4.62,0,7.96,3.24,7.96,7.69c0,4.38-3.41,7.69-7.96,7.69c-4.55,0-7.94-3.28-7.94-7.69
		C186.24,137.87,189.71,134.49,194.18,134.49z M194.2,147.55c2.88,0,5.12-2.31,5.12-5.33c0-3.05-2.14-5.36-5.12-5.36
		c-2.94,0-5.12,2.31-5.12,5.36C189.08,145.2,191.32,147.55,194.2,147.55z"/>
	<path class="st1" d="M217.33,149.88c-1.76,0-3.52-0.59-4.87-1.42l0.91-2.37c1.23,0.83,2.71,1.33,4.04,1.33
		c1.76,0,2.56-0.87,2.56-1.82c0-1-0.55-1.59-3.24-2.58c-2.9-1.06-3.9-2.44-3.9-4.21c0-2.24,1.82-4.32,5-4.32
		c1.59,0,3.16,0.46,4.11,1.02l-0.85,2.33c-0.87-0.49-2.18-1-3.32-1c-1.57,0-2.29,0.87-2.29,1.91c0,0.95,0.8,1.55,2.9,2.31
		c3.32,1.29,4.28,2.61,4.28,4.55C222.66,148.25,220.65,149.88,217.33,149.88z"/>
	<path class="st1" d="M236.68,145.31v4.32h-2.63v-14.89h4.55c3.96,0,5.95,2.18,5.95,5.29c0,3.11-1.97,5.27-6.46,5.27H236.68z
		 M236.68,137.15v5.82h1.74c2.46,0,3.3-1.31,3.3-2.94c0-1.63-0.83-2.88-3.3-2.88H236.68z"/>
	<path class="st1" d="M255.77,134.74h2.63v14.89h-2.63V134.74z"/>
	<path class="st1" d="M269.02,134.74h12.51v2.41h-4.89v12.47H274v-12.47h-4.98V134.74z"/>
	<path class="st1" d="M291.88,149.63h-2.75l6.99-15.01h0.59l6.99,15.01h-2.82l-1.31-2.96h-6.39L291.88,149.63z M294.1,144.56h4.53
		l-2.27-5.12L294.1,144.56z"/>
	<path class="st1" d="M314.37,134.74h2.63v12.47h7.05v2.41h-9.68V134.74z"/>
</g>
<g>
	<path class="st1" d="M502.59,90c0-38.79-31.55-70.34-70.34-70.34S361.91,51.21,361.91,90c0,24.38,12.47,45.89,31.36,58.52v0.02
		h0.03c11.16,7.45,24.55,11.8,38.95,11.8s27.79-4.35,38.95-11.8h0.03v-0.02C490.12,135.89,502.59,114.38,502.59,90z M497.52,85.08
		h-16.51c-16.88,0-31.36,10.43-37.35,25.18c-1.73-6.89-4.62-13.32-8.44-19.08c10.44-13.94,27.08-22.98,45.8-22.98h12.97
		C495.87,73.55,497.08,79.21,497.52,85.08z M440.49,121.15H424c0.69-9.32,3.61-18.04,8.25-25.59
		C436.89,103.11,439.81,111.83,440.49,121.15z M420.84,110.26c-6-14.75-20.48-25.18-37.35-25.18h-16.51
		c0.44-5.87,1.65-11.53,3.54-16.88h12.97c18.71,0,35.36,9.04,45.8,22.98C425.46,96.94,422.57,103.38,420.84,110.26z M486.89,126.01
		c-1.57,2.37-3.29,4.63-5.15,6.78h-98.99c-1.86-2.14-3.58-4.4-5.15-6.78H486.89z M477.08,137.66c-2.31,2.18-4.78,4.19-7.39,6.02
		h-74.87c-2.61-1.83-5.08-3.84-7.39-6.02H477.08z M489.83,121.15h-44c2.1-17.55,17.07-31.2,35.18-31.2h16.71c0,0.02,0,0.04,0,0.05
		C497.72,101.27,494.86,111.88,489.83,121.15z M432.25,24.53c26.61,0,49.55,15.97,59.78,38.82h-11.02
		c-19.77,0-37.39,9.3-48.76,23.75c-11.37-14.45-29-23.75-48.76-23.75h-11.02C382.7,40.49,405.64,24.53,432.25,24.53z M366.77,89.95
		h16.71c18.11,0,33.08,13.65,35.18,31.2h-44c-5.03-9.27-7.9-19.88-7.9-31.15C366.77,89.98,366.77,89.96,366.77,89.95z
		 M432.25,155.47c-10.52,0-20.47-2.51-29.29-6.94h58.57C452.71,152.97,442.77,155.47,432.25,155.47z"/>
	<path class="st1" d="M432.25,71.48c10.62,0,19.25-8.64,19.25-19.25s-8.64-19.25-19.25-19.25c-10.62,0-19.25,8.64-19.25,19.25
		S421.63,71.48,432.25,71.48z M432.25,37.84c7.93,0,14.39,6.46,14.39,14.39s-6.46,14.39-14.39,14.39s-14.39-6.46-14.39-14.39
		S424.31,37.84,432.25,37.84z"/>
</g>
</svg>
